<svg xmlns="http://www.w3.org/2000/svg" width="48.432" height="48.432" viewBox="0 0 48.432 48.432">
  <path id="bitcoin-circle" d="M25.216,1A24.216,24.216,0,1,0,49.432,25.216,24.216,24.216,0,0,0,25.216,1Zm0,44.029A19.813,19.813,0,1,1,45.029,25.216,19.813,19.813,0,0,1,25.216,45.029Zm4.4-30.82v-2.2a2.2,2.2,0,1,0-4.4,0v2.2h-2.2v-2.2a2.2,2.2,0,1,0-4.4,0v2.2h-2.2a2.2,2.2,0,1,0,0,4.4h2.2V31.82h-2.2a2.2,2.2,0,1,0,0,4.4h2.2v2.2a2.2,2.2,0,0,0,4.4,0v-2.2h2.2v2.2a2.2,2.2,0,0,0,4.4,0v-2.2a6.594,6.594,0,0,0,4.909-11.007,6.594,6.594,0,0,0-4.909-11.007Zm0,17.612h-6.6v-4.4h6.6a2.2,2.2,0,0,1,0,4.4Zm0-8.806h-6.6v-4.4h6.6a2.2,2.2,0,1,1,0,4.4Z" transform="translate(-1 -1)" fill="#5df5a3"/>
</svg>
