<svg xmlns="http://www.w3.org/2000/svg" width="46.891" height="46.847" viewBox="0 0 46.891 46.847">
  <path id="globe" d="M47.545,17.559v-.117a23.492,23.492,0,0,0-44.118,0s0,0,0,.117a23.163,23.163,0,0,0,0,15.787s0,0,0,.117a23.492,23.492,0,0,0,44.118,0v-.117a23.163,23.163,0,0,0,0-15.787ZM7.255,30.151a18.371,18.371,0,0,1,0-9.4h4.37a39.3,39.3,0,0,0,0,9.4Zm1.926,4.7h3.289a28.543,28.543,0,0,0,2.349,6.038A18.794,18.794,0,0,1,9.182,34.85Zm3.289-18.794H9.182a18.794,18.794,0,0,1,5.568-6.038,28.543,28.543,0,0,0-2.279,6.037ZM23.089,43.542a14.894,14.894,0,0,1-5.709-8.692h5.709Zm0-13.391H16.37a33.735,33.735,0,0,1,0-9.4h6.719Zm0-14.1H17.381a14.894,14.894,0,0,1,5.709-8.692Zm18.606,0H38.406a28.543,28.543,0,0,0-2.349-6.038A18.794,18.794,0,0,1,41.7,16.056ZM27.788,7.364A14.894,14.894,0,0,1,33.5,16.056H27.788Zm0,36.178V34.85H33.5a14.894,14.894,0,0,1-5.709,8.692Zm6.719-13.391H27.788v-9.4h6.719a33.734,33.734,0,0,1,0,9.4Zm1.621,10.736a28.543,28.543,0,0,0,2.349-6.038h3.289A18.794,18.794,0,0,1,36.127,40.887Zm7.494-10.736h-4.37a37.963,37.963,0,0,0,.282-4.7,38.244,38.244,0,0,0-.282-4.7h4.37A18.371,18.371,0,0,1,43.621,30.151Z" transform="translate(-2.04 -2.029)" fill="#5df5a3"/>
</svg>
