<svg xmlns="http://www.w3.org/2000/svg" width="50.432" height="45.847" viewBox="0 0 50.432 45.847">
  <path id="store-alt" d="M49.14,2H3.292A2.292,2.292,0,0,0,1,4.292v9.169a6.877,6.877,0,0,0,4.585,6.464V45.555a2.292,2.292,0,0,0,2.292,2.292H44.555a2.292,2.292,0,0,0,2.292-2.292V19.926a6.877,6.877,0,0,0,4.585-6.464V4.292A2.292,2.292,0,0,0,49.14,2ZM33.093,6.585h4.585v6.877a2.292,2.292,0,1,1-4.585,0Zm-9.169,0h4.585v6.877a2.292,2.292,0,1,1-4.585,0Zm-9.169,0h4.585v6.877a2.292,2.292,0,1,1-4.585,0ZM7.877,15.754a2.292,2.292,0,0,1-2.292-2.292V6.585h4.585v6.877A2.292,2.292,0,0,1,7.877,15.754ZM30.8,43.263H21.631V34.093a4.585,4.585,0,0,1,9.169,0Zm11.462,0H35.386V34.093a9.169,9.169,0,1,0-18.339,0v9.169H10.169V19.926a7.267,7.267,0,0,0,2.292-1.375,6.877,6.877,0,0,0,9.169,0,6.877,6.877,0,0,0,9.169,0,6.877,6.877,0,0,0,9.169,0,7.267,7.267,0,0,0,2.292,1.375Zm4.585-29.8a2.292,2.292,0,1,1-4.585,0V6.585h4.585Z" transform="translate(-1 -2)" fill="#5df5a3"/>
</svg>
