<svg xmlns="http://www.w3.org/2000/svg" width="49.432" height="44.489" viewBox="0 0 49.432 44.489">
  <path id="coins" d="M49.5,25.244a7.383,7.383,0,0,0-5.487-12.358h-12.8A7.415,7.415,0,0,0,24.244,3H9.415A7.383,7.383,0,0,0,3.928,15.358a7.415,7.415,0,0,0,0,9.886,7.415,7.415,0,0,0,0,9.886A7.383,7.383,0,0,0,9.415,47.489h34.6A7.415,7.415,0,0,0,49.5,35.131,7.415,7.415,0,0,0,49.5,25.244Zm-25.26,17.3H9.415a2.472,2.472,0,1,1,0-4.943h14.83a2.472,2.472,0,1,1,0,4.943Zm0-9.886H9.415a2.472,2.472,0,1,1,0-4.943h14.83a2.472,2.472,0,1,1,0,4.943Zm0-9.886H9.415a2.472,2.472,0,0,1,0-4.943h14.83a2.472,2.472,0,1,1,0,4.943Zm0-9.886H9.415a2.472,2.472,0,0,1,0-4.943h14.83a2.472,2.472,0,1,1,0,4.943ZM45.723,41.829a2.3,2.3,0,0,1-1.705.717h-12.8a7.093,7.093,0,0,0,0-4.943h12.8a2.448,2.448,0,0,1,1.705,4.226Zm0-9.886a2.3,2.3,0,0,1-1.705.717h-12.8a7.093,7.093,0,0,0,0-4.943h12.8a2.448,2.448,0,0,1,1.705,4.226Zm0-9.886a2.3,2.3,0,0,1-1.705.717h-12.8a7.094,7.094,0,0,0,0-4.943h12.8a2.448,2.448,0,0,1,1.705,4.226Z" transform="translate(-2 -3)" fill="#5df5a3"/>
</svg>
